<?xml version="1.0" encoding="UTF-8" standalone="no"?>
<!DOCTYPE svg PUBLIC "-//W3C//DTD SVG 1.1//EN" "http://www.w3.org/Graphics/SVG/1.1/DTD/svg11.dtd">
<svg width="100%" height="100%" viewBox="0 0 1588 1123" version="1.1" xmlns="http://www.w3.org/2000/svg" xmlns:xlink="http://www.w3.org/1999/xlink" xml:space="preserve" xmlns:serif="http://www.serif.com/" style="fill-rule:evenodd;clip-rule:evenodd;">
    <g id="dp_dp001">
        <g id="dp_path002" transform="matrix(0.923813,-0.382845,0.382845,0.923813,495.881,727.599)">
            <path d="M0,10.941C13.573,10.941 17.303,11.915 25.673,13.959C39.923,17.437 58.348,17.928 85.493,31.809" style="fill:none;stroke:white;stroke-width:2.67px;"/>
        </g>
        <path id="dp_path003" d="M1294.87,93.319L1071.68,253.263L1026.57,304.451L971.957,277.445L907.851,305.276L907.585,392.339L798.632,430.289L732.151,460.148L641.925,532.385L463.852,741.327L321.392,841.048L148.067,1047.61" style="fill:none;stroke:rgb(0,169,236);stroke-opacity:0.56;stroke-width:6.67px;"/>
        <g id="dp_group004" transform="matrix(1,0,0,1,118.717,111.158)">
            <g id="dp_group005">
                <path id="dp_path006" d="M1351.41,115.545L1375.45,115.232L1366.5,137.539L1362.73,132.04L1367.48,120.697L1355.19,121.044L1351.41,115.545Z" style="fill:rgb(170,170,170);"/>
                <path id="dp_path007" d="M1298.81,171.828L1369.64,123.259L1365.87,117.76L1295.04,166.329L1298.81,171.828Z" style="fill:rgb(170,170,170);fill-rule:nonzero;"/>
            </g>
        </g>
        <g id="dp_group008" transform="matrix(1,0,0,1,179.147,181.073)">
            <g id="dp_group009">
                <path id="dp_path010" d="M-125.316,908.215L-141.921,925.591L-151.576,903.58L-145.011,904.739L-140.243,916.073L-131.881,907.056L-125.316,908.215Z" style="fill:rgb(170,170,170);"/>
                <path id="dp_path011" d="M86.764,173.064L102.208,154.648L113.269,175.985L106.643,175.256L101.149,164.253L93.391,173.795L86.764,173.064Z" style="fill:rgb(170,170,170);"/>
                <path id="dp_path012" d="M-137.017,916.98L-137.013,916.957L-140.296,916.379L-137.211,917.641L-137.199,917.612L-140.284,916.349L-137.345,917.924L-137.325,917.887L-140.264,916.312L-137.477,918.141L-137.449,918.099L-140.236,916.269L-137.565,918.264L-137.548,918.24L-137.531,918.219L-137.444,918.121L-137.325,917.993L-137.156,917.821L-136.953,917.616L-136.439,917.111L-135.803,916.503L-135.051,915.795L-134.188,914.992L-133.217,914.1L-132.143,913.12L-130.968,912.055L-129.699,910.907L-128.339,909.683L-126.887,908.383L-123.725,905.561L-120.247,902.468L-116.473,899.119L-112.429,895.537L-108.14,891.743L-98.924,883.592L-94.045,879.275L-89.021,874.823L-83.873,870.257L-78.628,865.596L-73.309,860.86L-67.941,856.069L-62.548,851.241L-59.849,848.82L-57.153,846.397L-54.464,843.975L-51.785,841.557L-49.117,839.145L-46.464,836.74L-43.831,834.347L-41.217,831.965L-38.629,829.601L-36.067,827.256L-33.536,824.929L-31.039,822.625L-28.577,820.347L-26.157,818.097L-23.779,815.879L-21.444,813.691L-19.161,811.539L-16.928,809.424L-14.751,807.349L-12.629,805.319L-10.568,803.329L-8.576,801.393L-3.912,796.845L0.939,792.124L11.14,782.197L16.459,777.021L21.903,771.72L27.453,766.308L33.097,760.796L38.817,755.201L44.596,749.535L47.503,746.677L50.419,743.809L53.341,740.928L56.269,738.037L59.199,735.139L62.131,732.236L65.061,729.327L67.988,726.415L70.911,723.501L73.825,720.588L76.731,717.676L79.625,714.769L82.507,711.865L85.373,708.971L88.221,706.084L91.051,703.208L93.86,700.343L96.645,697.492L99.407,694.655L102.139,691.837L104.843,689.036L107.516,686.255L110.156,683.496L112.76,680.76L115.328,678.049L117.856,675.365L120.343,672.709L122.787,670.084L125.187,667.489L126.368,666.203L127.539,664.927L128.697,663.659L129.841,662.4L130.973,661.151L132.092,659.909L133.199,658.68L134.292,657.457L135.371,656.245L136.436,655.044L137.487,653.853L138.524,652.672L139.545,651.501L140.552,650.343L141.543,649.193L142.519,648.057L143.48,646.931L144.424,645.817L145.353,644.713L146.264,643.624L147.159,642.548L148.039,641.481L148.9,640.427L149.744,639.387L150.569,638.359L151.379,637.345L152.171,636.343L152.941,635.355L153.696,634.38L154.436,633.412L154.812,632.911L155.184,632.401L155.556,631.881L155.919,631.355L156.269,630.833L156.619,630.303L156.964,629.763L157.301,629.221L157.629,628.679L157.956,628.131L158.273,627.579L158.588,627.021L158.896,626.459L159.197,625.896L159.493,625.328L159.784,624.759L160.071,624.183L160.353,623.6L160.628,623.019L160.896,622.437L161.163,621.849L161.423,621.256L161.677,620.663L161.929,620.067L162.173,619.468L162.416,618.867L162.652,618.26L162.883,617.657L163.112,617.047L163.336,616.431L163.555,615.82L163.771,615.203L163.981,614.584L164.188,613.965L164.389,613.345L164.589,612.723L164.785,612.095L164.977,611.465L165.164,610.84L165.349,610.211L165.529,609.579L165.708,608.947L165.88,608.312L166.051,607.679L166.219,607.041L166.383,606.405L166.543,605.771L166.703,605.128L167.009,603.852L167.305,602.572L167.591,601.289L167.865,600.008L168.131,598.728L168.388,597.443L168.635,596.163L168.873,594.888L169.105,593.612L169.329,592.34L169.548,591.073L169.761,589.809L169.967,588.553L170.168,587.303L170.559,584.825L170.935,582.381L171.3,579.977L171.66,577.617L172.017,575.308L172.196,574.175L172.373,573.061L172.556,571.96L172.737,570.876L172.923,569.811L173.109,568.763L173.3,567.733L173.493,566.724L173.691,565.737L173.892,564.775L174.1,563.831L174.311,562.912L174.528,562.016L174.637,561.583L174.751,561.147L174.863,560.723L174.976,560.311L175.093,559.9L175.211,559.495L175.375,558.951L175.545,558.408L175.724,557.857L175.909,557.301L176.099,556.748L176.295,556.195L176.497,555.632L176.705,555.068L176.917,554.503L177.133,553.937L177.356,553.368L177.581,552.8L178.047,551.648L178.523,550.493L179.011,549.332L179.507,548.167L180.517,545.819L181.529,543.465L182.032,542.281L182.528,541.096L183.016,539.912L183.491,538.729L183.725,538.133L183.955,537.54L184.18,536.947L184.401,536.352L184.619,535.759L184.829,535.165L185.036,534.571L185.236,533.979L185.431,533.384L185.617,532.792L185.8,532.2L185.975,531.605L186.141,531.011L186.301,530.417L186.451,529.825L186.593,529.236L186.728,528.641L186.853,528.044L186.967,527.457L187.072,526.863L187.165,526.267L187.249,525.677L187.32,525.085L187.381,524.491L187.428,523.899L187.463,523.303L187.483,522.724L187.488,522.42L187.489,522.221L187.487,522.284L187.492,522.231L187.545,521.78L187.765,520.1L187.92,518.928L188.097,517.553L188.295,515.989L188.508,514.251L188.732,512.348L188.961,510.301L189.079,509.224L189.196,508.112L189.312,506.972L189.428,505.801L189.543,504.604L189.655,503.379L189.764,502.131L189.872,500.859L189.976,499.564L190.076,498.249L190.172,496.917L190.261,495.567L190.347,494.199L190.425,492.82L190.497,491.429L190.564,490.025L190.623,488.612L190.672,487.189L190.713,485.763L190.745,484.332L190.768,482.895L190.78,481.456L190.783,480.019L190.772,478.583L190.752,477.153L190.737,476.431L190.717,475.716L190.696,475.004L190.672,474.295L190.644,473.583L190.612,472.873L190.577,472.169L190.537,471.463L190.496,470.764L190.451,470.064L190.399,469.367L190.345,468.676L190.288,467.988L190.228,467.3L190.161,466.613L190.091,465.935L190.016,465.259L189.937,464.587L189.855,463.921L189.768,463.259L189.676,462.599L189.579,461.947L189.479,461.296L189.371,460.651L189.261,460.015L189.144,459.377L189.023,458.748L188.896,458.125L188.763,457.509L188.627,456.9L188.483,456.291L188.333,455.691L188.177,455.1L188.019,454.516L187.851,453.933L187.676,453.359L187.497,452.796L187.313,452.24L186.977,451.275L186.631,450.3L186.269,449.309L185.893,448.308L185.505,447.295L185.104,446.267L184.688,445.227L184.26,444.175L183.82,443.109L183.368,442.033L182.903,440.944L182.425,439.841L181.936,438.729L181.437,437.605L180.925,436.469L180.404,435.324L179.869,434.164L179.325,432.996L178.772,431.817L178.207,430.625L177.633,429.425L177.049,428.216L176.457,426.996L175.853,425.764L175.241,424.525L174.621,423.276L173.992,422.016L173.353,420.749L172.708,419.475L172.055,418.188L170.725,415.595L169.367,412.968L167.98,410.311L166.569,407.625L165.135,404.912L163.677,402.172L162.2,399.409L160.707,396.625L159.196,393.82L157.671,390.995L156.132,388.153L153.025,382.424L149.891,376.644L146.741,370.829L145.167,367.913L143.592,364.991L142.023,362.069L140.459,359.145L138.903,356.223L137.356,353.303L135.82,350.387L134.296,347.477L132.788,344.576L131.296,341.684L129.823,338.803L129.095,337.369L128.369,335.936L127.651,334.509L126.94,333.085L126.232,331.663L125.532,330.248L124.837,328.836L124.151,327.431L123.472,326.031L122.799,324.632L122.132,323.241L121.476,321.857L120.824,320.477L120.183,319.104L119.548,317.737L118.923,316.377L118.307,315.024L117.699,313.676L117.1,312.337L116.512,311.005L115.932,309.681L115.363,308.365L114.803,307.056L114.255,305.757L113.716,304.467L113.189,303.185L112.673,301.912L112.169,300.648L111.676,299.393L111.193,298.148L110.724,296.913L110.267,295.691L109.821,294.476L109.389,293.272L108.969,292.079L108.563,290.897L108.169,289.731L107.791,288.575L107.425,287.428L107.073,286.295L106.736,285.173L106.412,284.064L106.163,283.179L105.917,282.287L105.68,281.388L105.447,280.484L105.22,279.573L104.999,278.657L104.784,277.735L104.572,276.805L104.369,275.877L104.171,274.937L103.976,273.993L103.788,273.048L103.605,272.097L103.429,271.139L103.257,270.175L103.089,269.212L102.929,268.241L102.772,267.268L102.621,266.289L102.475,265.305L102.333,264.32L102.197,263.332L102.067,262.34L101.939,261.343L101.817,260.344L101.7,259.341L101.588,258.336L101.48,257.331L101.377,256.319L101.279,255.305L101.184,254.289L101.095,253.272L101.009,252.251L100.928,251.228L100.851,250.205L100.779,249.181L100.709,248.152L100.645,247.124L100.584,246.093L100.528,245.061L100.475,244.029L100.427,242.996L100.381,241.961L100.341,240.928L100.304,239.891L100.269,238.853L100.24,237.817L100.213,236.78L100.189,235.743L100.169,234.708L100.153,233.669L100.14,232.633L100.131,231.596L100.123,230.561L100.12,229.527L100.12,228.491L100.121,227.461L100.128,226.432L100.148,224.367L100.179,222.312L100.221,220.264L100.273,218.223L100.335,216.192L100.407,214.169L100.485,212.159L100.575,210.16L100.671,208.173L100.776,206.201L100.887,204.243L101.005,202.301L101.129,200.376L101.259,198.469L101.395,196.58L101.533,194.712L101.679,192.864L101.827,191.037L101.977,189.235L102.133,187.455L102.289,185.7L102.449,183.972L102.609,182.269L102.772,180.596L102.935,178.949L103.097,177.333L103.26,175.751L103.584,172.673L103.899,169.733L104.205,166.936L104.499,164.288L97.872,163.557L97.58,166.207L97.271,169.015L96.953,171.971L96.629,175.061L96.464,176.66L96.301,178.287L96.136,179.947L95.973,181.636L95.811,183.352L95.651,185.099L95.492,186.869L95.336,188.665L95.183,190.489L95.032,192.335L94.887,194.204L94.745,196.093L94.609,198.004L94.477,199.935L94.351,201.884L94.232,203.852L94.119,205.835L94.013,207.836L93.915,209.849L93.825,211.88L93.744,213.92L93.672,215.972L93.608,218.037L93.556,220.111L93.513,222.193L93.483,224.285L93.463,226.377L93.456,227.431L93.452,228.487L93.455,229.539L93.457,230.595L93.465,231.651L93.475,232.707L93.488,233.764L93.504,234.821L93.524,235.883L93.548,236.941L93.575,238L93.607,239.06L93.641,240.119L93.679,241.177L93.721,242.237L93.767,243.296L93.817,244.356L93.871,245.415L93.929,246.471L93.991,247.528L94.057,248.583L94.127,249.636L94.201,250.692L94.281,251.744L94.365,252.793L94.453,253.841L94.545,254.891L94.643,255.936L94.744,256.979L94.849,258.02L94.96,259.063L95.077,260.1L95.197,261.135L95.324,262.168L95.455,263.197L95.591,264.224L95.732,265.249L95.879,266.272L96.031,267.288L96.187,268.304L96.349,269.317L96.517,270.325L96.691,271.333L96.871,272.332L97.055,273.328L97.245,274.324L97.441,275.315L97.644,276.299L97.851,277.279L98.067,278.26L98.287,279.229L98.512,280.197L98.747,281.161L98.984,282.12L99.231,283.075L99.481,284.021L99.74,284.967L100.005,285.905L100.345,287.068L100.699,288.243L101.067,289.429L101.448,290.624L101.843,291.831L102.252,293.048L102.675,294.272L103.108,295.505L103.556,296.749L104.015,298.001L104.485,299.267L104.971,300.536L105.464,301.816L105.971,303.103L106.488,304.399L107.017,305.704L107.557,307.017L108.107,308.337L108.668,309.665L109.239,310.999L109.819,312.341L110.409,313.689L111.008,315.045L111.617,316.408L112.233,317.775L112.86,319.152L113.496,320.533L114.139,321.919L114.791,323.311L115.448,324.707L116.115,326.112L116.789,327.519L117.468,328.931L118.157,330.349L118.852,331.771L119.552,333.196L120.26,334.627L120.973,336.06L121.692,337.497L122.419,338.94L123.147,340.381L123.883,341.831L125.367,344.731L126.867,347.641L128.385,350.561L129.917,353.487L131.461,356.416L133.016,359.349L134.577,362.283L136.147,365.217L137.721,368.149L139.299,371.077L140.876,374.001L144.031,379.821L147.165,385.601L150.269,391.328L151.805,394.167L153.328,396.984L154.833,399.781L156.324,402.557L157.796,405.309L159.245,408.036L160.672,410.733L162.075,413.403L163.451,416.041L164.799,418.647L166.117,421.219L166.763,422.489L167.403,423.753L168.033,425.007L168.655,426.248L169.267,427.481L169.871,428.707L170.464,429.917L171.048,431.121L171.624,432.315L172.189,433.493L172.744,434.661L173.287,435.819L173.82,436.965L174.341,438.099L174.852,439.22L175.351,440.329L175.839,441.424L176.315,442.509L176.779,443.577L177.228,444.632L177.667,445.676L178.093,446.704L178.505,447.719L178.903,448.716L179.288,449.701L179.66,450.672L180.017,451.625L180.36,452.56L180.688,453.484L181,454.385L181.157,454.856L181.309,455.336L181.457,455.823L181.599,456.317L181.739,456.824L181.873,457.343L182.004,457.865L182.129,458.395L182.252,458.94L182.369,459.489L182.483,460.048L182.593,460.613L182.697,461.184L182.799,461.767L182.896,462.353L182.988,462.945L183.077,463.549L183.161,464.153L183.243,464.768L183.32,465.388L183.393,466.012L183.463,466.643L183.528,467.279L183.589,467.915L183.647,468.557L183.701,469.211L183.752,469.867L183.799,470.521L183.841,471.181L183.883,471.851L183.92,472.517L183.952,473.189L183.984,473.864L184.009,474.539L184.033,475.221L184.055,475.907L184.072,476.589L184.087,477.269L184.107,478.653L184.115,480.039L184.115,481.425L184.103,482.813L184.08,484.203L184.048,485.593L184.009,486.977L183.96,488.357L183.904,489.731L183.84,491.097L183.768,492.456L183.692,493.803L183.609,495.136L183.52,496.455L183.427,497.757L183.329,499.045L183.228,500.311L183.123,501.559L183.016,502.783L182.904,503.981L182.792,505.157L182.679,506.307L182.565,507.425L182.451,508.513L182.336,509.569L182.109,511.587L181.888,513.455L181.68,515.167L181.485,516.707L181.308,518.065L181.156,519.235L180.931,520.949L180.864,521.501L180.837,521.765L180.824,522.02L180.823,522.333L180.817,522.541L180.803,522.995L180.776,523.439L180.74,523.892L180.695,524.348L180.637,524.812L180.572,525.287L180.497,525.76L180.411,526.24L180.316,526.733L180.215,527.221L180.101,527.717L179.98,528.224L179.849,528.733L179.713,529.247L179.568,529.761L179.415,530.281L179.253,530.809L179.085,531.34L178.909,531.873L178.728,532.412L178.54,532.953L178.345,533.499L178.147,534.047L177.941,534.596L177.729,535.152L177.513,535.711L177.295,536.267L176.839,537.401L176.372,538.54L175.889,539.688L175.397,540.845L174.393,543.185L173.377,545.544L172.871,546.736L172.369,547.929L171.875,549.127L171.391,550.324L171.152,550.929L170.916,551.533L170.684,552.139L170.456,552.744L170.235,553.348L170.016,553.951L169.801,554.56L169.593,555.169L169.392,555.773L169.195,556.38L169.003,556.992L168.82,557.6L168.687,558.053L168.556,558.515L168.427,558.985L168.301,559.457L168.18,559.928L168.057,560.409L167.821,561.38L167.595,562.371L167.373,563.376L167.159,564.403L166.951,565.445L166.749,566.5L166.551,567.569L166.356,568.655L166.165,569.755L165.979,570.865L165.793,571.991L165.611,573.131L165.429,574.28L165.069,576.605L164.709,578.973L164.344,581.372L163.971,583.8L163.585,586.253L163.387,587.483L163.184,588.717L162.976,589.955L162.763,591.195L162.544,592.435L162.317,593.676L162.084,594.919L161.845,596.159L161.599,597.396L161.341,598.633L161.077,599.867L160.803,601.096L160.52,602.323L160.227,603.545L160.077,604.148L159.923,604.756L159.767,605.363L159.609,605.963L159.447,606.567L159.283,607.164L159.115,607.761L158.945,608.356L158.771,608.948L158.595,609.541L158.416,610.128L158.233,610.711L158.047,611.293L157.856,611.876L157.663,612.455L157.468,613.028L157.268,613.6L157.065,614.171L156.86,614.733L156.649,615.293L156.435,615.856L156.217,616.409L155.996,616.963L155.771,617.511L155.543,618.056L155.309,618.599L155.073,619.133L154.833,619.665L154.587,620.199L154.339,620.724L154.088,621.243L153.831,621.757L153.569,622.271L153.303,622.78L153.033,623.284L152.76,623.783L152.483,624.276L152.2,624.764L151.913,625.251L151.62,625.732L151.325,626.207L151.028,626.672L150.721,627.136L150.408,627.601L150.096,628.053L149.78,628.499L149.453,628.944L149.12,629.389L148.412,630.315L147.679,631.263L146.927,632.224L146.156,633.2L145.365,634.192L144.556,635.199L143.731,636.217L142.885,637.251L142.024,638.296L141.143,639.356L140.245,640.429L139.332,641.515L138.401,642.612L137.453,643.723L136.491,644.845L135.511,645.979L134.517,647.124L133.507,648.281L132.483,649.449L131.443,650.627L130.388,651.817L129.317,653.019L128.235,654.228L127.139,655.449L126.028,656.68L124.904,657.919L123.768,659.169L122.62,660.427L121.457,661.695L120.284,662.971L117.9,665.549L115.469,668.159L112.996,670.801L110.481,673.472L107.927,676.169L105.333,678.892L102.704,681.64L100.041,684.411L97.348,687.201L94.624,690.011L91.873,692.837L89.096,695.68L86.295,698.537L83.473,701.405L80.631,704.284L77.772,707.173L74.896,710.069L72.009,712.971L69.109,715.875L66.2,718.783L63.283,721.691L60.361,724.597L57.436,727.501L54.509,730.401L51.583,733.295L48.66,736.183L45.74,739.059L42.829,741.924L39.925,744.776L34.152,750.437L28.437,756.029L22.799,761.536L17.251,766.945L11.809,772.244L6.491,777.42L-3.711,787.347L-8.564,792.071L-13.225,796.616L-15.207,798.541L-17.249,800.512L-19.355,802.529L-21.519,804.591L-23.739,806.692L-26.011,808.833L-28.332,811.008L-30.7,813.219L-33.112,815.46L-35.563,817.728L-38.052,820.024L-40.575,822.343L-43.129,824.683L-45.709,827.041L-48.317,829.415L-50.945,831.803L-53.591,834.203L-56.253,836.609L-58.929,839.024L-61.613,841.441L-64.304,843.859L-66.997,846.277L-72.383,851.097L-77.745,855.883L-83.059,860.616L-88.299,865.272L-93.444,869.835L-98.465,874.284L-103.341,878.599L-112.557,886.749L-116.849,890.547L-120.896,894.131L-124.675,897.483L-128.161,900.584L-131.331,903.413L-132.791,904.721L-134.164,905.956L-135.444,907.112L-136.629,908.188L-137.72,909.184L-138.712,910.097L-139.604,910.924L-140.393,911.667L-141.077,912.323L-141.659,912.892L-141.915,913.151L-142.148,913.392L-142.371,913.629L-142.564,913.847L-142.768,914.087L-142.968,914.355L-143.133,914.607L-143.304,914.927L-143.517,915.447L-143.583,915.823L-137.017,916.98Z" style="fill:rgb(170,170,170);fill-rule:nonzero;"/>
            </g>
        </g>
        <g id="dp_group013" transform="matrix(0.114417,0.993433,-0.993433,0.114417,1242.04,-1229)">
            <g id="dp_group014">
                <path id="dp_path015" d="M1313.26,174.043L1289.23,174.356L1298.18,152.049L1301.95,157.548L1297.2,168.891L1309.49,168.544L1313.26,174.043Z" style="fill:rgb(170,170,170);"/>
                <path id="dp_path016" d="M1298.81,171.828L1369.64,123.259L1365.87,117.76L1295.04,166.329L1298.81,171.828Z" style="fill:rgb(170,170,170);fill-rule:nonzero;"/>
            </g>
        </g>
        <g id="dp_path017" transform="matrix(1,0,0,1,129.565,143.995)">
            <path d="M1287.09,135.589C1280.08,139.609 1273.25,144.984 1264.83,145.668C1253.24,146.611 1237.48,126.459 1234.89,114.959C1233.49,108.744 1236.46,102.548 1237.89,96.544C1241.03,83.391 1243.05,66.415 1236.31,53.08C1234.14,48.789 1231.19,44.92 1228.88,40.74C1224.99,33.704 1222.59,25.649 1217.42,22.661C1205.68,15.881 1184.6,33.275 1172.28,28.569C1160.05,23.896 1152.77,-2.845 1137.27,0.499C1114.31,5.452 1094.3,45.649 1074.33,61.995C1066.35,68.529 1054.74,73.523 1045.07,80.376C1039.17,84.567 1032.36,93.153 1024,95.115C1020.78,95.872 1017.74,94.657 1014.54,94.265C1003.96,92.967 992.288,94.428 982.381,99.669C963.268,109.78 949.868,136.041 929.761,142.568C888.109,156.092 871.988,92.427 832.46,99.759C817.667,102.501 821.528,123.653 809.552,128.935C804.941,130.968 800.311,129.132 795.384,128.872C783.695,128.255 770.448,131.869 761.272,137.68C743.267,149.085 748.711,177.713 752.304,199.571C753.317,205.729 755.064,212.108 753.887,218.241C750.939,233.599 738.207,244.875 731.152,259.148C725.459,270.667 720.709,287.963 711.763,296.828C693.653,314.771 667.191,298.745 648.036,314.813C628.78,330.965 623.993,360.408 603.999,370.505C584.543,380.332 556.172,380.04 540.536,393.819C525.101,407.419 544.844,442.947 531.471,458.577C523.161,468.289 466.545,478.401 453.759,484.481C432.916,494.392 429.14,543.612 412.313,560.897C396.029,577.624 378.464,580.405 364.392,599.752C350.356,619.048 359.967,623.605 348.848,643.788C344.585,651.528 331.156,660.475 327.844,663.78C325.011,666.608 317.409,666.679 311.776,669.275C301.907,673.823 293.491,683.311 283.488,685.856C274.156,688.231 264.381,686.867 254.348,687.905C242.28,689.153 231.737,696.151 220.743,700.839C217.569,702.191 214.095,703.159 211.109,704.952C209.315,706.032 207.625,707.84 206.509,709.564C200.975,718.115 200.348,728.497 196.203,737.316C189.976,750.561 181.961,762.671 175.425,775.684C169.483,787.516 164.525,800.251 158.223,812.739C154.34,820.431 150.452,828.048 144.721,833.244C139.432,838.04 130.404,841.435 127.557,847.707C124.833,853.709 126.028,861.444 124.579,868.853C122.9,877.431 124.244,896.333 115.353,894.485C102.348,891.783 71.548,849.265 46.545,852.637C21.543,856.009 -33.317,916.739 -34.667,914.716" style="fill:none;stroke:white;stroke-width:10.8px;"/>
        </g>
        <g id="dp_text018" transform="matrix(1,0,0,1,1265.38,296.932)">
            <text x="0px" y="0px" style="font-family:'BritishRailLightNormal';font-size:20px;fill:white;">Dufftown</text>
        </g>
        <g id="dp_path019" transform="matrix(1,0,0,1,1365.61,266.639)">
            <path d="M12.585,0C19.536,0 25.171,5.635 25.171,12.585C25.171,19.536 19.536,25.171 12.585,25.171C5.635,25.171 0,19.536 0,12.585C0,5.635 5.635,0 12.585,0Z" style="fill:rgb(152,0,0);stroke:white;stroke-width:5.68px;"/>
        </g>
        <g id="dp_path020" transform="matrix(1,0,0,1,1270.5,141.659)">
            <path d="M12.585,0C19.536,0 25.171,5.635 25.171,12.585C25.171,19.536 19.536,25.171 12.585,25.171C5.635,25.171 0,19.536 0,12.585C0,5.635 5.635,0 12.585,0Z" style="fill:rgb(152,0,0);stroke:white;stroke-width:5.68px;"/>
        </g>
        <g id="dp_path021" transform="matrix(1,0,0,1,1155.15,217.058)">
            <path d="M12.585,0C19.536,0 25.171,5.635 25.171,12.585C25.171,19.536 19.536,25.171 12.585,25.171C5.635,25.171 0,19.536 0,12.585C0,5.635 5.635,0 12.585,0Z" style="fill:rgb(152,0,0);stroke:white;stroke-width:5.68px;"/>
        </g>
        <g id="dp_path022" transform="matrix(1,0,0,1,1003.37,263.602)">
            <path d="M12.585,0C19.536,0 25.171,5.635 25.171,12.585C25.171,19.536 19.536,25.171 12.585,25.171C5.635,25.171 0,19.536 0,12.585C0,5.635 5.635,0 12.585,0Z" style="fill:rgb(152,0,0);stroke:white;stroke-width:5.68px;"/>
        </g>
        <g id="dp_path023" transform="matrix(1,0,0,1,898.135,263.602)">
            <path d="M12.585,0C19.536,0 25.171,5.635 25.171,12.585C25.171,19.536 19.536,25.171 12.585,25.171C5.635,25.171 0,19.536 0,12.585C0,5.635 5.635,0 12.585,0Z" style="fill:rgb(152,0,0);stroke:white;stroke-width:5.68px;"/>
        </g>
        <g id="dp_path024" transform="matrix(1,0,0,1,867.78,352.646)">
            <path d="M12.585,0C19.536,0 25.171,5.635 25.171,12.585C25.171,19.536 19.536,25.171 12.585,25.171C5.635,25.171 0,19.536 0,12.585C0,5.635 5.635,0 12.585,0Z" style="fill:rgb(152,0,0);stroke:white;stroke-width:5.68px;"/>
        </g>
        <g id="dp_path025" transform="matrix(1,0,0,1,827.304,431.571)">
            <path d="M12.585,0C19.536,0 25.171,5.635 25.171,12.585C25.171,19.536 19.536,25.171 12.585,25.171C5.635,25.171 0,19.536 0,12.585C0,5.635 5.635,0 12.585,0Z" style="fill:rgb(152,0,0);stroke:white;stroke-width:5.68px;"/>
        </g>
        <g id="dp_path026" transform="matrix(1,0,0,1,657.312,526.686)">
            <path d="M12.585,0C19.536,0 25.171,5.635 25.171,12.585C25.171,19.536 19.536,25.171 12.585,25.171C5.635,25.171 0,19.536 0,12.585C0,5.635 5.635,0 12.585,0Z" style="fill:rgb(152,0,0);stroke:white;stroke-width:5.68px;"/>
        </g>
        <g id="dp_path027" transform="matrix(1,0,0,1,481.248,731.082)">
            <path d="M12.585,0C19.536,0 25.171,5.635 25.171,12.585C25.171,19.536 19.536,25.171 12.585,25.171C5.635,25.171 0,19.536 0,12.585C0,5.635 5.635,0 12.585,0Z" style="fill:rgb(152,0,0);stroke:white;stroke-width:5.68px;"/>
        </g>
        <g id="dp_path028" transform="matrix(1,0,0,1,335.541,834.292)">
            <path d="M12.585,0C19.536,0 25.171,5.635 25.171,12.585C25.171,19.536 19.536,25.171 12.585,25.171C5.635,25.171 0,19.536 0,12.585C0,5.635 5.635,0 12.585,0Z" style="fill:rgb(152,0,0);stroke:white;stroke-width:5.68px;"/>
        </g>
        <g id="dp_path029" transform="matrix(1,0,0,1,234.354,1016)">
            <path d="M12.585,0C19.536,0 25.171,5.635 25.171,12.585C25.171,19.536 19.536,25.171 12.585,25.171C5.635,25.171 0,19.536 0,12.585C0,5.635 5.635,0 12.585,0Z" style="fill:rgb(152,0,0);stroke:white;stroke-width:5.68px;"/>
        </g>
        <g id="dp_path030" transform="matrix(1,0,0,1,85.2326,1039.24)">
            <path d="M12.585,0C19.536,0 25.171,5.635 25.171,12.585C25.171,19.536 19.536,25.171 12.585,25.171C5.635,25.171 0,19.536 0,12.585C0,5.635 5.635,0 12.585,0Z" style="fill:rgb(152,0,0);stroke:white;stroke-width:5.68px;"/>
        </g>
        <g id="dp_text031" transform="matrix(1,0,0,1,1302.15,154.453)">
            <text x="0px" y="0px" style="font-family:'BritishRailLightNormal';font-size:24px;fill:white;">Craigellachie</text>
        </g>
        <g id="dp_text032" transform="matrix(1,0,0,1,1183.16,253.263)">
            <text x="0px" y="0px" style="font-family:'BritishRailLightNormal';font-size:24px;fill:white;">Aberlour</text>
        </g>
        <g id="dp_text033" transform="matrix(1,0,0,1,1003.17,253.143)">
            <text x="0px" y="0px" style="font-family:'BritishRailLightNormal';font-size:24px;fill:white;">Carron</text>
        </g>
        <g id="dp_text034" transform="matrix(1,0,0,1,797.056,253.143)">
            <text x="0px" y="0px" style="font-family:'BritishRailLightNormal';font-size:24px;fill:white;">Knockando</text>
        </g>
        <g id="dp_text035" transform="matrix(1,0,0,1,742.755,373.423)">
            <text x="0px" y="0px" style="font-family:'BritishRailLightNormal';font-size:24px;fill:white;">Blacksboat</text>
        </g>
        <g id="dp_text036" transform="matrix(1,0,0,1,857.167,460.148)">
            <text x="0px" y="0px" style="font-family:'BritishRailLightNormal';font-size:24px;fill:white;">Ballindalloch</text>
        </g>
        <g id="dp_text037" transform="matrix(1,0,0,1,685.325,562.892)">
            <text x="0px" y="0px" style="font-family:'BritishRailLightNormal';font-size:24px;fill:white;">Advie</text>
        </g>
        <g id="dp_text038" transform="matrix(1,0,0,1,373.216,881.591)">
            <text x="0px" y="0px" style="font-family:'BritishRailLightNormal';font-size:24px;fill:white;">Gantown (East)</text>
        </g>
        <g id="dp_text039" transform="matrix(1,0,0,1,515.26,762.875)">
            <text x="0px" y="0px" style="font-family:'BritishRailLightNormal';font-size:24px;fill:white;">Cromdale</text>
        </g>
        <g id="dp_text040" transform="matrix(1,0,0,1,265.956,1036.4)">
            <text x="0px" y="0px" style="font-family:'BritishRailLightNormal';font-size:24px;fill:white;">Nethy Bridge</text>
        </g>
        <g id="dp_text041" transform="matrix(1,0,0,1,117.451,1074.83)">
            <text x="0px" y="0px" style="font-family:'BritishRailLightNormal';font-size:24px;fill:white;">Boat of Garten</text>
        </g>
        <g id="dp_text042" transform="matrix(1,0,0,1,292.367,392.339)">
            <text x="0px" y="0px" style="font-family:'BritishRailLightNormal';font-size:24px;fill:rgb(170,170,170);">Forres</text>
        </g>
        <g id="dp_text043" transform="matrix(1,0,0,1,1463.96,277.445)">
            <text x="0px" y="0px" style="font-family:'BritishRailLightNormal';font-size:24px;fill:rgb(170,170,170);">Keith</text>
        </g>
        <g id="dp_text044" transform="matrix(1,0,0,1,1186.73,123.031)">
            <text x="0px" y="0px" style="font-family:'BritishRailLightNormal';font-size:24px;fill:rgb(170,170,170);">Elgin</text>
        </g>
        <g id="dp_text045" transform="matrix(1,0,0,1,63.9627,1103.76)">
            <text x="0px" y="0px" style="font-family:'BritishRailLightNormal';font-size:24px;fill:rgb(170,170,170);">Perth (Aviemore)</text>
        </g>
        <g id="dp_text046" transform="matrix(1,0,0,1,1305.09,92.592)">
            <text x="0px" y="0px" style="font-family:'BritishRailLightNormal';font-size:24px;fill:rgb(19,108,146);">River Spey</text>
        </g>
        <g id="dp_path047" transform="matrix(1,0,0,1,1072.69,266.934)">
            <path d="M7.131,0C11.069,0 14.261,3.192 14.261,7.131C14.261,11.069 11.069,14.261 7.131,14.261C3.192,14.261 0,11.069 0,7.131C0,3.192 3.192,0 7.131,0Z" style="fill:rgb(152,0,0);stroke:white;stroke-width:3.22px;"/>
        </g>
        <g id="dp_path048" transform="matrix(1,0,0,1,981.073,241.803)">
            <path d="M7.131,0C11.069,0 14.261,3.192 14.261,7.131C14.261,11.069 11.069,14.261 7.131,14.261C3.192,14.261 0,11.069 0,7.131C0,3.192 3.192,0 7.131,0Z" style="fill:rgb(152,0,0);stroke:white;stroke-width:3.22px;"/>
        </g>
        <g id="dp_path049" transform="matrix(1,0,0,1,950.681,237.39)">
            <path d="M7.131,0C11.069,0 14.261,3.192 14.261,7.131C14.261,11.069 11.069,14.261 7.131,14.261C3.192,14.261 0,11.069 0,7.131C0,3.192 3.192,0 7.131,0Z" style="fill:rgb(152,0,0);stroke:white;stroke-width:3.22px;"/>
        </g>
        <g id="dp_path050" transform="matrix(1,0,0,1,933.663,264.901)">
            <path d="M7.131,0C11.069,0 14.261,3.192 14.261,7.131C14.261,11.069 11.069,14.261 7.131,14.261C3.192,14.261 0,11.069 0,7.131C0,3.192 3.192,0 7.131,0Z" style="fill:rgb(152,0,0);stroke:white;stroke-width:3.22px;"/>
        </g>
        <g id="dp_path051" transform="matrix(1,0,0,1,656.493,588.265)">
            <path d="M7.131,0C11.069,0 14.261,3.192 14.261,7.131C14.261,11.069 11.069,14.261 7.131,14.261C3.192,14.261 0,11.069 0,7.131C0,3.192 3.192,0 7.131,0Z" style="fill:rgb(152,0,0);stroke:white;stroke-width:3.22px;"/>
        </g>
        <g id="dp_path052" transform="matrix(1,0,0,1,279.641,949.314)">
            <path d="M7.131,0C11.069,0 14.261,3.192 14.261,7.131C14.261,11.069 11.069,14.261 7.131,14.261C3.192,14.261 0,11.069 0,7.131C0,3.192 3.192,0 7.131,0Z" style="fill:rgb(152,0,0);stroke:white;stroke-width:3.22px;"/>
        </g>
        <g id="dp_text053" transform="matrix(1,0,0,1,301.299,964.637)">
            <text x="0px" y="0px" style="font-family:'BritishRailLightNormal';font-size:16px;fill:white;">Ballifurth Farm Halt</text>
        </g>
        <g id="dp_text054" transform="matrix(1,0,0,1,676.444,601.043)">
            <text x="0px" y="0px" style="font-family:'BritishRailLightNormal';font-size:16px;fill:white;">Dalvey Farm Halt</text>
        </g>
        <g id="dp_text055" transform="matrix(0.627012,0.77901,-0.77901,0.627012,836.449,143.19)">
            <text x="0px" y="0px" style="font-family:'BritishRailLightNormal';font-size:16px;fill:white;">Gilbey’s Cottages Halt</text>
        </g>
        <g id="dp_text056" transform="matrix(0.627012,0.77901,-0.77901,0.627012,877.721,151.862)">
            <text x="0px" y="0px" style="font-family:'BritishRailLightNormal';font-size:16px;fill:white;">Knockando Halt</text>
        </g>
        <g id="dp_text057" transform="matrix(0.627012,0.77901,-0.77901,0.627012,885.937,118.259)">
            <text x="0px" y="0px" style="font-family:'BritishRailLightNormal';font-size:16px;fill:white;">Imperial Cottages Halt</text>
        </g>
        <g id="dp_dp058" transform="matrix(1,0,0,1,1094.72,284.157)">
            <text id="dp_text059" x="0px" y="0px" style="font-family:'BritishRailLightNormal';font-size:16px;fill:white;">Dalluaine Halt</text>
        </g>
        <g id="dp_path061" transform="matrix(1,0,0,1,1053.24,279.325)">
            <path d="M0,10.941C13.573,10.941 17.068,13.528 25.673,13.959C37.831,14.567 69.317,10.431 72.94,14.588C76.563,18.745 71.724,27.96 47.411,38.901" style="fill:none;stroke:white;stroke-width:2.67px;"/>
        </g>
        <g id="dp_text062" transform="matrix(1,0,0,1,593.259,730.931)">
            <text x="0px" y="0px" style="font-family:'BritishRailLightNormal';font-size:16px;fill:white;">Cromdale Distillery Branch</text>
        </g>
        <g id="dp_text063" transform="matrix(1,0,0,1,1088.23,339.491)">
            <text x="0px" y="0px" style="font-family:'BritishRailLightNormal';font-size:16px;fill:white;">Dalluaine Distillery Branch</text>
        </g>
    </g>
</svg>
