<?xml version="1.0" encoding="UTF-8" standalone="no"?>
<!DOCTYPE svg PUBLIC "-//W3C//DTD SVG 1.1//EN" "http://www.w3.org/Graphics/SVG/1.1/DTD/svg11.dtd">
<svg width="100%" height="100%" viewBox="0 0 1024 406" version="1.1" xmlns="http://www.w3.org/2000/svg" xmlns:xlink="http://www.w3.org/1999/xlink" xml:space="preserve" xmlns:serif="http://www.serif.com/" style="fill-rule:evenodd;clip-rule:evenodd;stroke-linejoin:round;stroke-miterlimit:2;">
    <g id="explorer_stats" transform="matrix(1,0,0,0.679611,2.66454e-15,0)">
        <rect x="0" y="0" width="1024" height="596.128" style="fill:none;"/>
        <g transform="matrix(1,0,0,1.47143,0,0)">
            <path d="M476.036,366.688C476.036,360.074 470.666,354.704 464.052,354.704L157.946,354.704C151.332,354.704 145.962,360.074 145.962,366.688L145.962,390.656C145.962,397.27 151.332,402.64 157.946,402.64L464.052,402.64C470.666,402.64 476.036,397.27 476.036,390.656L476.036,366.688Z" style="fill:rgb(235,235,235);fill-opacity:0.8;"/>
        </g>
        <g transform="matrix(1,0,0,1.47143,402.003,0)">
            <path d="M476.036,366.688C476.036,360.074 470.666,354.704 464.052,354.704L157.946,354.704C151.332,354.704 145.962,360.074 145.962,366.688L145.962,390.656C145.962,397.27 151.332,402.64 157.946,402.64L464.052,402.64C470.666,402.64 476.036,397.27 476.036,390.656L476.036,366.688Z" style="fill:rgb(235,235,235);fill-opacity:0.8;"/>
        </g>
        <g transform="matrix(1,0,0,1.47143,447.224,-7620.26)">
            <text x="121.423px" y="5567.09px" style="font-family:'FiraSans-SemiBold', 'Fira Sans', sans-serif;font-weight:600;font-size:24px;stroke:black;stroke-width:1px;">F<tspan x="132.415px 139.183px 151.999px 165.775px 174.583px " y="5567.09px 5567.09px 5567.09px 5567.09px 5567.09px ">igure</tspan> 8</text>
            <text x="213.295px" y="5567.09px" style="font-family:'FiraSans-ExtraLight', 'Fira Sans', sans-serif;font-weight:275;font-size:24px;stroke:black;stroke-width:1px;">Over<tspan x="261.751px 274.327px " y="5567.09px 5567.09px ">al</tspan>l sentiment</text>
        </g>
        <g transform="matrix(1,0,0,1.47143,53.2013,-7621.8)">
            <text x="131.869px" y="5567.09px" style="font-family:'FiraSans-SemiBold', 'Fira Sans', sans-serif;font-weight:600;font-size:24px;stroke:black;stroke-width:1px;">F<tspan x="142.861px 149.629px 162.445px 176.221px 185.029px " y="5567.09px 5567.09px 5567.09px 5567.09px 5567.09px ">igure</tspan> 7</text>
            <text x="221.053px" y="5567.09px" style="font-family:'FiraSans-ExtraLight', 'Fira Sans', sans-serif;font-weight:275;font-size:24px;stroke:black;stroke-width:1px;">Time using app</text>
        </g>
        <g transform="matrix(1,0,0,1.47143,-1.68196,-105.683)">
            <g id="user_favourable.pdf" transform="matrix(0.782532,0,0,0.782532,710.693,244.216)">
                <g transform="matrix(1,0,0,1,-216,-216)">
                    <clipPath id="_clip1">
                        <rect x="0" y="0" width="432" height="432"/>
                    </clipPath>
                    <g clip-path="url(#_clip1)">
                        <g transform="matrix(1.68142,0,0,1.68142,-156.266,-348.625)">
                            <path d="M346.14,339.526C346.14,322.345 342.59,305.348 335.714,289.602C328.837,273.857 318.782,259.701 306.178,248.024C293.575,236.347 278.694,227.399 262.471,221.742C246.247,216.085 229.029,213.84 211.898,215.149L221.4,339.526L346.14,339.526Z" style="fill:rgb(0,73,127);fill-rule:nonzero;stroke:white;stroke-width:0.59px;stroke-linejoin:miter;stroke-miterlimit:10;"/>
                        </g>
                        <g transform="matrix(1.68142,0,0,1.68142,-156.266,-140.793)">
                            <path d="M211.898,91.543C181.867,93.838 153.659,106.933 132.525,128.392C111.391,149.85 98.728,178.254 96.892,208.316C95.056,238.379 104.168,268.112 122.534,291.984C140.899,315.855 167.303,332.285 196.831,338.218L221.4,215.921L211.898,91.543Z" style="fill:rgb(0,122,175);fill-rule:nonzero;stroke:white;stroke-width:0.59px;stroke-linejoin:miter;stroke-miterlimit:10;"/>
                        </g>
                        <g transform="matrix(0.38129,1.63762,1.63762,-0.38129,-82.1193,-19.1539)">
                            <path d="M293.583,88.463C300.964,104.685 304.784,122.302 304.784,140.125C304.784,157.947 300.964,175.564 293.583,191.786L180.044,140.125L293.583,88.463Z" style="fill:rgb(148,148,148);fill-rule:nonzero;stroke:white;stroke-width:0.59px;stroke-linejoin:miter;stroke-miterlimit:10;"/>
                        </g>
                        <g transform="matrix(1.49699,0.765631,0.765631,-1.49699,-229.811,334.252)">
                            <path d="M318.467,126.644C326.369,143.331 330.469,161.567 330.469,180.031C330.469,198.495 326.369,216.73 318.467,233.418L205.729,180.031L318.467,126.644Z" style="fill:rgb(251,108,0);fill-rule:nonzero;stroke:white;stroke-width:0.59px;stroke-linejoin:miter;stroke-miterlimit:10;"/>
                        </g>
                        <g transform="matrix(1.68122,0.0256416,0.0256416,-1.68122,-161.645,574.497)">
                            <path d="M346.104,210.986C346.113,211.62 346.118,212.255 346.118,212.889C346.118,213.523 346.113,214.157 346.104,214.791L221.378,212.889L346.104,210.986Z" style="fill:rgb(202,53,0);fill-rule:nonzero;stroke:white;stroke-width:0.59px;stroke-linejoin:miter;stroke-miterlimit:10;"/>
                        </g>
                        <g transform="matrix(1.68142,0,0,1.68142,-281.629,-84.0269)">
                            <text x="314.508px" y="120.265px" style="font-family:'FiraSans-Bold', 'Fira Sans', sans-serif;font-weight:700;font-size:10px;fill:rgb(255,235,235);stroke:black;stroke-width:0.25px;">V<tspan x="320.593px 326.747px 331.392px " y="120.265px 120.265px 120.265px ">ery</tspan></text>
                            <text x="339.554px" y="120.265px" style="font-family:'FiraSans-Bold', 'Fira Sans', sans-serif;font-weight:700;font-size:10px;fill:rgb(255,235,235);stroke:black;stroke-width:0.25px;">p<tspan x="346.158px 352.633px 358.097px 361.552px 366.046px 369.501px 375.185px " y="120.265px 120.265px 120.265px 120.265px 120.265px 120.265px 120.265px ">ositive</tspan></text>
                        </g>
                        <g transform="matrix(1.68142,0,0,1.68142,-156.266,-144.558)">
                            <text x="256.194px" y="166.016px" style="font-family:'FiraSans-Bold', 'Fira Sans', sans-serif;font-weight:700;font-size:10px;fill:rgb(255,235,235);stroke:black;stroke-width:0.25px;">2<tspan x="262.063px 268.402px 271.502px 277.371px " y="166.016px 166.016px 166.016px 166.016px ">6.2%</tspan></text>
                        </g>
                        <g transform="matrix(1.68142,0,0,1.68142,-85.6464,-154.646)">
                            <text x="84.233px" y="212.553px" style="font-family:'FiraSans-Bold', 'Fira Sans', sans-serif;font-weight:700;font-size:10px;fill:rgb(255,235,235);stroke:black;stroke-width:0.25px;">P<tspan x="90.356px 96.619px 101.873px 105.116px 109.399px 112.643px 118.116px " y="212.553px 212.553px 212.553px 212.553px 212.553px 212.553px 212.553px ">ositive</tspan></text>
                        </g>
                        <g transform="matrix(1.68142,0,0,1.68142,-156.266,-144.558)">
                            <text x="130.502px" y="216.355px" style="font-family:'FiraSans-Bold', 'Fira Sans', sans-serif;font-weight:700;font-size:10px;fill:rgb(255,235,235);stroke:black;stroke-width:0.25px;">4<tspan x="136.751px 142.811px 145.81px 152.149px " y="216.355px 216.355px 216.355px 216.355px ">5.6%</tspan></text>
                        </g>
                        <g transform="matrix(1.68142,0,0,1.68142,-215.579,-258.853)">
                            <text x="252.734px" y="354.557px" style="font-family:'FiraSans-Bold', 'Fira Sans', sans-serif;font-weight:700;font-size:10px;fill:rgb(255,235,235);stroke:black;stroke-width:0.25px;">N<tspan x="260.049px 266.255px 272.661px 277.207px 281.553px 287.619px " y="354.557px 354.557px 354.557px 354.557px 354.557px 354.557px ">eutral</tspan></text>
                        </g>
                        <g transform="matrix(1.68142,0,0,1.68142,-156.266,-144.558)">
                            <text x="222.259px" y="293.812px" style="font-family:'FiraSans-Bold', 'Fira Sans', sans-serif;font-weight:700;font-size:10px;fill:rgb(255,235,235);stroke:black;stroke-width:0.25px;">1<tspan x="227.598px 233.498px 236.497px 242.836px " y="293.812px 293.812px 293.812px 293.812px ">3.6%</tspan></text>
                        </g>
                        <g transform="matrix(1.68142,0,0,1.68142,-291.855,-211.815)">
                            <text x="343.573px" y="283.398px" style="font-family:'FiraSans-Bold', 'Fira Sans', sans-serif;font-weight:700;font-size:10px;fill:rgb(255,235,235);stroke:black;stroke-width:0.25px;">N<tspan x="350.892px 357.101px 363.07px 369.239px 373.789px 377.298px 383.037px " y="283.398px 283.398px 283.398px 283.398px 283.398px 283.398px 283.398px ">egative</tspan></text>
                        </g>
                        <g transform="matrix(1.68142,0,0,1.68142,-156.266,-144.558)">
                            <text x="271.861px" y="254.998px" style="font-family:'FiraSans-Bold', 'Fira Sans', sans-serif;font-weight:700;font-size:10px;fill:rgb(255,235,235);stroke:black;stroke-width:0.25px;">1<tspan x="277.201px 283.55px 285.649px 290.989px " y="254.998px 254.998px 254.998px 254.998px ">4.1%</tspan></text>
                        </g>
                        <g transform="matrix(1.68142,0,0,1.68142,-324.931,-156.345)">
                            <text x="358.425px" y="223.01px" style="font-family:'FiraSans-Bold', 'Fira Sans', sans-serif;font-weight:700;font-size:10px;fill:rgb(255,235,235);stroke:black;stroke-width:0.25px;">V<tspan x="364.565px 370.775px 375.475px " y="223.01px 223.01px 223.01px ">ery</tspan></text>
                            <text x="383.478px" y="223.01px" style="font-family:'FiraSans-Bold', 'Fira Sans', sans-serif;font-weight:700;font-size:10px;fill:rgb(255,235,235);stroke:black;stroke-width:0.25px;">n<tspan x="389.938px 396.148px 402.118px 408.288px 412.837px 416.347px 422.087px " y="223.01px 223.01px 223.01px 223.01px 223.01px 223.01px 223.01px ">egative</tspan></text>
                        </g>
                        <g transform="matrix(1.68142,0,0,1.68142,-159.629,-133.544)">
                            <text x="283.39px" y="222.059px" style="font-family:'FiraSans-Bold', 'Fira Sans', sans-serif;font-weight:700;font-size:10px;fill:rgb(255,235,235);stroke:black;stroke-width:0.25px;">0<tspan x="289.906px 293.073px 298.899px " y="222.059px 222.059px 222.059px ">.5%</tspan></text>
                        </g>
                    </g>
                </g>
            </g>
            <g id="user_times.pdf" transform="matrix(0.76406,0,0,0.76406,312.681,244.216)">
                <g transform="matrix(1,0,0,1,-216,-216)">
                    <clipPath id="_clip2">
                        <rect x="0" y="0" width="432" height="432"/>
                    </clipPath>
                    <g clip-path="url(#_clip2)">
                        <g transform="matrix(1.67998,-0.35709,-0.35709,-1.67998,-67.9452,677.383)">
                            <path d="M339.503,201.427C341.315,209.953 342.229,218.645 342.229,227.362C342.229,236.078 341.315,244.771 339.503,253.297L217.489,227.362L339.503,201.427Z" style="fill:rgb(255,68,73);fill-rule:nonzero;stroke:white;stroke-width:0.58px;stroke-linejoin:miter;stroke-miterlimit:10;"/>
                        </g>
                        <g transform="matrix(1.71751,0,0,1.71751,-164.014,-239.792)">
                            <path d="M335.356,215.667C328.246,199.698 317.858,185.4 304.867,173.704C291.877,162.007 276.572,153.17 259.947,147.769C243.322,142.367 225.746,140.52 208.361,142.347C190.976,144.174 174.168,149.635 159.03,158.376C143.892,167.116 130.758,178.941 120.483,193.083C110.208,207.225 103.02,223.37 99.386,240.469C95.751,257.567 95.751,275.24 99.386,292.338C103.02,309.437 110.209,325.582 120.483,339.724L221.4,266.404L335.356,215.667Z" style="fill:rgb(255,187,66);fill-rule:nonzero;stroke:white;stroke-width:0.58px;stroke-linejoin:miter;stroke-miterlimit:10;"/>
                        </g>
                        <g transform="matrix(-1.14924,1.27636,1.27636,1.14924,122.036,-91.3326)">
                            <path d="M219.052,135.247C220.865,143.773 221.778,152.465 221.778,161.181C221.778,169.898 220.865,178.59 219.052,187.116L97.038,161.181L219.052,135.247Z" style="fill:rgb(130,174,49);fill-rule:nonzero;stroke:white;stroke-width:0.58px;stroke-linejoin:miter;stroke-miterlimit:10;"/>
                        </g>
                        <g transform="matrix(1.71751,0,0,1.71751,-164.014,64.7283)">
                            <path d="M159.03,197.128C177.991,208.075 199.505,213.84 221.4,213.84C243.295,213.84 264.809,208.075 283.77,197.128C302.731,186.181 318.481,170.431 329.428,151.47C340.375,132.509 346.14,110.995 346.14,89.1L221.4,89.1L159.03,197.128Z" style="fill:rgb(12,123,36);fill-rule:nonzero;stroke:white;stroke-width:0.58px;stroke-linejoin:miter;stroke-miterlimit:10;"/>
                        </g>
                        <g transform="matrix(1.71751,0,0,1.71751,-318.97,-123.933)">
                            <text x="343.414px" y="194.983px" style="font-family:'FiraSans-Bold', 'Fira Sans', sans-serif;font-weight:700;font-size:10px;fill:white;stroke:rgb(24,0,0);stroke-width:0.31px;">U<tspan x="350.681px 357.209px 363.966px 370.243px " y="194.983px 194.983px 194.983px 194.983px ">nder</tspan></text>
                            <text x="376.942px" y="194.983px" style="font-family:'FiraSans-Bold', 'Fira Sans', sans-serif;font-weight:700;font-size:10px;fill:white;stroke:rgb(24,0,0);stroke-width:0.31px;">5</text>
                            <text x="385.784px" y="194.983px" style="font-family:'FiraSans-Bold', 'Fira Sans', sans-serif;font-weight:700;font-size:10px;fill:white;stroke:rgb(24,0,0);stroke-width:0.31px;">m<tspan x="394.992px 398.569px 405.096px 411.574px 416.011px 422.288px " y="194.983px 194.983px 194.983px 194.983px 194.983px 194.983px ">inutes</tspan></text>
                        </g>
                        <g transform="matrix(1.71751,0,0,1.71751,-163.18,-159.933)">
                            <text x="281.905px" y="205.357px" style="font-family:'FiraSans-Bold', 'Fira Sans', sans-serif;font-weight:700;font-size:10px;fill:white;stroke:rgb(24,0,0);stroke-width:0.31px;">6<tspan x="288.212px 291.278px 296.724px " y="205.357px 205.357px 205.357px ">.7%</tspan></text>
                        </g>
                        <g transform="matrix(1.71751,0,0,1.71751,-154.815,-63.9331)">
                            <text x="159.03px" y="112.89px" style="font-family:'FiraSans-Bold', 'Fira Sans', sans-serif;font-weight:700;font-size:10px;fill:white;stroke:rgb(24,0,0);stroke-width:0.31px;">5<tspan x="165.183px 169.346px 174.779px " y="112.89px 112.89px 112.89px ">-10</tspan></text>
                            <text x="183.613px" y="112.89px" style="font-family:'FiraSans-Bold', 'Fira Sans', sans-serif;font-weight:700;font-size:10px;fill:white;stroke:rgb(24,0,0);stroke-width:0.31px;">m<tspan x="192.856px 196.469px 203.033px 209.546px 214.019px 220.332px " y="112.89px 112.89px 112.89px 112.89px 112.89px 112.89px ">inutes</tspan></text>
                        </g>
                        <g transform="matrix(1.71751,0,0,1.71751,-140.595,-155.933)">
                            <text x="168.095px" y="156.101px" style="font-family:'FiraSans-Bold', 'Fira Sans', sans-serif;font-weight:700;font-size:10px;fill:white;stroke:rgb(24,0,0);stroke-width:0.31px;">5<tspan x="174.064px 179.964px 183.223px 189.122px " y="156.101px 156.101px 156.101px 156.101px ">3.3%</tspan></text>
                        </g>
                        <g transform="matrix(1.71751,0,0,1.71751,-186.571,-191.503)">
                            <text x="137.933px" y="313.618px" style="font-family:'FiraSans-Bold', 'Fira Sans', sans-serif;font-weight:700;font-size:10px;fill:white;stroke:rgb(24,0,0);stroke-width:0.31px;">1<tspan x="143.366px 150.01px 154.393px 160.357px " y="313.618px 313.618px 313.618px 313.618px ">0-20</tspan></text>
                            <text x="169.195px" y="313.618px" style="font-family:'FiraSans-Bold', 'Fira Sans', sans-serif;font-weight:700;font-size:10px;fill:white;stroke:rgb(24,0,0);stroke-width:0.31px;">m<tspan x="178.438px 182.052px 188.615px 195.129px 199.602px 205.916px " y="313.618px 313.618px 313.618px 313.618px 313.618px 313.618px ">inutes</tspan></text>
                        </g>
                        <g transform="matrix(1.71751,0,0,1.71751,-180.741,-140.616)">
                            <text x="158.616px" y="276.538px" style="font-family:'FiraSans-Bold', 'Fira Sans', sans-serif;font-weight:700;font-size:10px;fill:white;stroke:rgb(24,0,0);stroke-width:0.31px;">6<tspan x="164.923px 167.989px 173.435px " y="276.538px 276.538px 276.538px ">.7%</tspan></text>
                        </g>
                        <g transform="matrix(1.71751,0,0,1.71751,-271.966,-249.933)">
                            <text x="283.77px" y="328.946px" style="font-family:'FiraSans-Bold', 'Fira Sans', sans-serif;font-weight:700;font-size:10px;fill:white;stroke:rgb(24,0,0);stroke-width:0.31px;">O<tspan x="291.449px 297.269px 303.558px " y="328.946px 328.946px 328.946px ">ver</tspan></text>
                            <text x="310.326px" y="328.946px" style="font-family:'FiraSans-Bold', 'Fira Sans', sans-serif;font-weight:700;font-size:10px;fill:white;stroke:rgb(24,0,0);stroke-width:0.31px;">2<tspan x="316.265px " y="328.946px ">0</tspan></text>
                            <text x="325.629px" y="328.946px" style="font-family:'FiraSans-Bold', 'Fira Sans', sans-serif;font-weight:700;font-size:10px;fill:white;stroke:rgb(24,0,0);stroke-width:0.31px;">m<tspan x="334.848px 338.438px 344.977px 351.467px 355.916px 362.205px " y="328.946px 328.946px 328.946px 328.946px 328.946px 328.946px ">inutes</tspan></text>
                        </g>
                        <g transform="matrix(1.71751,0,0,1.71751,-164.014,-156.933)">
                            <text x="242.939px" y="285.735px" style="font-family:'FiraSans-Bold', 'Fira Sans', sans-serif;font-weight:700;font-size:10px;fill:white;stroke:rgb(24,0,0);stroke-width:0.31px;">3<tspan x="248.838px 254.738px 257.997px 263.896px " y="285.735px 285.735px 285.735px 285.735px ">3.3%</tspan></text>
                        </g>
                    </g>
                </g>
            </g>
        </g>
    </g>
</svg>
